<?xml version="1.0" standalone="no"?><!DOCTYPE svg PUBLIC "-//W3C//DTD SVG 1.1//EN" "http://www.w3.org/Graphics/SVG/1.1/DTD/svg11.dtd"><svg t="1745138689398" class="icon" viewBox="0 0 1024 1024" version="1.1" xmlns="http://www.w3.org/2000/svg" p-id="8782" xmlns:xlink="http://www.w3.org/1999/xlink" width="200" height="200"><path d="M458.285475 890.652919v-4.653495 4.664872z m54.362828-60.757118a56.035356 56.035356 0 0 0-56.194644 56.103623v0.70542c0 6.394288 4.892427 11.400493 11.195693 11.400493s11.207071-5.006204 11.207072-11.400493v-0.70542c0-18.500201 14.700037-34.099079 33.68948-34.099079 19.000821 0 33.700858 15.598878 33.700858 34.099079v0.70542c0 6.394288 4.892427 11.400493 11.195693 11.400493s11.207071-5.006204 11.207072-11.400493v-0.70542c0.193422-30.606113-25.099289-56.092245-56.001224-56.092245zM382.066012 709.51934c-15.496478-3.606743-38.593285-2.810301-43.49709 13.493997-2.798923 9.898631 13.300575 11.400493 28.103012 14.904836 11.889736 2.798923 18.295402 9.193212 16.89594 11.400493-2.798923 3.595365-20.400283-3.504343-36.499782 2.093503-15.496478 5.700246-12.595155 19.91104-3.504343 23.404006 9.10219 3.595365 23.893248-0.70542 58.299526 5.006204 17.60136 2.787546 28.103011-2.810301 30.196515-13.505374 3.993586-24.098048-28.296433-51.802838-49.993778-56.797665z m209.282101 57.491707c2.093504 10.604051 11.889736 16.304298 30.196514 13.505374 34.3949-5.700246 49.185958-1.399462 58.288149-5.006204 9.10219-3.492965 11.901113-18.500201-3.492966-23.392628-15.507856-5.700246-32.995438 1.399462-36.499781-2.104881-2.104881-2.798923 4.892427-9.193212 16.89594-12.094535 14.700037-3.606743 30.901935-5.006204 28.103011-14.904836-4.903805-16.304298-27.397591-16.99834-43.49709-13.493997-21.902144 4.994827-54.294563 32.699617-49.993777 57.491707z m420.646326-296.697256l-195.276106-181.702465c-6.303266-6.394288-15.496478-9.193212-24.598668-9.193212H232.4829c-9.10219 0-17.60136 3.504343-23.893249 9.20459L11.891328 470.313791A35.748851 35.748851 0 0 0 0.001593 497.290406v445.097084C0.001593 987.101998 35.795955 1024 80.783528 1024h862.432489c44.191132 0 80.781935-36.898002 80.781935-81.601132v-445.097084c-0.1024-10.001031-5.006204-19.899663-12.003513-26.999371z m-352.561946-2.798923c-12.595155 0-23.199206 10.604051-23.199207 24.098047C636.244664 558.309211 580.038642 614.401456 513.365101 614.401456c-66.696296 0-122.890941-56.092245-122.890941-122.799919 0-12.799954-10.501652-24.098048-23.199206-24.098047H93.412816l146.07877-134.894454h546.347568l144.679308 134.894454H659.432493z m310.373296 48.196095V942.307846c0 15.598878-11.901113 26.999371-26.703549 26.999371H80.783528c-15.4851 0-28.091633-12.094535-28.091634-26.999371V515.699585h292.180295a168.777355 168.777355 0 0 0 51.29084 98.007829c32.290019 31.197756 73.693605 47.593075 117.281716 47.593076 43.49709 0 84.991698-16.99834 117.293094-47.593076 27.397591-26.999371 45.692993-61.007428 51.29084-98.007829h287.77711z m-723.624094-312.193735l-89.087683-85.492318a24.33698 24.33698 0 0 1-0.807819-34.099079 23.665694 23.665694 0 0 1 33.700858-0.796441l88.985283 85.492318c9.60281 9.193212 9.898631 24.393869 0.910219 34.099079a23.665694 23.665694 0 0 1-33.700858 0.796441z m245.474683-37.796843a24.348358 24.348358 0 0 1-7.395529-16.804918L481.052327 24.807108c-0.295821-13.402975 10.103431-24.393869 23.199206-24.803467a24.075292 24.075292 0 0 1 24.496269 23.506405l3.094744 124.096981c0.204799 9.70521-5.290648 18.705-14.097016 22.596186a23.642938 23.642938 0 0 1-26.089152-4.494206z m231.081845 33.393659a23.961515 23.961515 0 0 1-7.406907-16.89594 24.166314 24.166314 0 0 1 6.496688-17.203139l84.593477-90.088924a23.665694 23.665694 0 0 1 33.68948-0.796441c9.500411 9.193212 9.898631 24.393869 0.796442 34.087701l-84.582099 90.111679a24.211825 24.211825 0 0 1-16.702519 7.486551c-6.200867 0-12.287956-2.298303-16.89594-6.701487z" fill="#FB553C" p-id="8783"></path></svg>